<svg width="1089" height="264" viewBox="0 0 1089 264" fill="none" xmlns="http://www.w3.org/2000/svg">
<path d="M355.578 197.742C339.938 197.742 326.957 194.244 316.666 187.276C306.345 180.28 300.014 169.729 297.701 155.592L321.667 149.868C322.997 156.69 325.252 162.096 328.403 166.086C331.554 170.075 335.515 172.909 340.256 174.556C344.997 176.233 350.114 177.043 355.607 177.043C363.759 177.043 370.032 175.453 374.455 172.301C378.85 169.15 381.076 165.074 381.076 160.073C381.076 155.071 378.994 151.429 374.831 149.087C370.668 146.746 364.511 144.838 356.358 143.363L347.888 141.86C339.562 140.357 331.988 138.188 325.194 135.384C318.371 132.551 312.965 128.648 308.976 123.647C304.986 118.646 302.992 112.257 302.992 104.451C302.992 92.8008 307.328 83.7811 315.972 77.3921C324.616 71.0031 336.093 67.7942 350.403 67.7942C364.713 67.7942 375.554 70.9164 384.458 77.1608C393.362 83.4052 399.144 91.8468 401.804 102.485L377.867 109.221C376.363 101.734 373.212 96.4723 368.384 93.379C363.557 90.3146 357.572 88.7535 350.432 88.7535C343.291 88.7535 337.943 90.0544 333.953 92.6273C329.964 95.2002 327.969 98.8139 327.969 103.468C327.969 108.47 329.935 112.112 333.838 114.454C337.741 116.796 343.031 118.53 349.68 119.686L358.411 121.19C367.228 122.693 375.294 124.774 382.608 127.434C389.922 130.094 395.704 133.91 399.953 138.911C404.203 143.912 406.314 150.562 406.314 158.859C406.314 171.174 401.746 180.743 392.582 187.537C383.417 194.359 371.131 197.771 355.664 197.771L355.578 197.742Z" fill="#F0F0F0"/>
<path d="M425.569 194.241V30.5853H451.27V88.722H455.259C456.907 85.5709 459.278 82.4776 462.371 79.4999C465.435 76.4933 469.511 74.0649 474.6 72.128C479.659 70.22 486.105 69.266 493.94 69.266C503.249 69.266 511.517 71.3475 518.773 75.5104C526 79.6733 531.695 85.5419 535.858 93.0873C540.021 100.662 542.103 109.768 542.103 120.407V194.241H516.402V122.401C516.402 111.763 513.743 103.899 508.423 98.8403C503.104 93.7811 495.79 91.2371 486.481 91.2371C475.843 91.2371 467.314 94.7351 460.897 101.702C454.479 108.698 451.299 118.846 451.299 132.144V194.27H425.598L425.569 194.241Z" fill="#F0F0F0"/>
<path d="M613.62 196.464C604.311 196.464 595.985 194.382 588.671 190.219C581.357 186.056 575.604 180.159 571.47 172.498C567.307 164.837 565.226 155.701 565.226 145.063V71.2284H590.926V143.328C590.926 153.967 593.586 161.83 598.905 166.918C604.224 172.006 611.625 174.521 621.107 174.521C631.572 174.521 640.014 170.994 646.432 163.912C652.821 156.858 656.03 146.653 656.03 133.355V71.2284H681.73V194.238H656.521V175.765H652.532C650.19 180.766 646.056 185.449 640.043 189.872C634.059 194.266 625.241 196.493 613.591 196.493L613.62 196.464Z" fill="#F0F0F0"/>
<path d="M745.708 194.241C738.221 194.241 732.265 191.986 727.871 187.505C723.477 183.024 721.251 177.04 721.251 169.552V92.9717H698.123V71.2607H721.251V30.5853H746.951V71.2607H775.89V92.9717H746.951V165.072C746.951 170.073 749.293 172.559 753.947 172.559H779.648V194.27H745.708V194.241ZM826.539 194.241C819.051 194.241 813.067 191.986 808.586 187.505C804.105 183.024 801.85 177.04 801.85 169.552V92.9717H775.89V71.2607H801.85V30.5853H827.551V71.2607H864.468V92.9717H827.551V165.072C827.551 170.073 829.95 172.559 834.778 172.559H860.218V194.27H826.539V194.241Z" fill="#F0F0F0"/>
<path d="M938.276 197.742C925.787 197.742 914.917 195.111 905.579 189.878C896.27 184.646 888.985 177.245 883.753 167.676C878.52 158.107 875.889 147.006 875.889 134.372V131.366C875.889 118.559 878.462 107.371 883.637 97.8021C888.783 88.2331 895.981 80.8323 905.203 75.5997C914.425 70.3671 925.122 67.7363 937.264 67.7363C949.406 67.7363 959.437 70.3671 968.341 75.5997C977.245 80.8323 984.184 88.1174 989.185 97.4262C994.186 106.735 996.672 117.634 996.672 130.123V139.865H902.11C902.428 150.677 906.071 159.292 912.951 165.681C919.86 172.099 928.446 175.279 938.767 175.279C948.423 175.279 955.679 173.111 960.594 168.803C965.508 164.467 969.295 159.495 971.955 153.828L993.174 164.814C990.833 169.468 987.479 174.383 983.085 179.529C978.662 184.675 972.88 189.011 965.739 192.509C958.57 196.007 949.434 197.742 938.304 197.742H938.276ZM902.341 120.149H970.452C969.787 110.84 966.462 103.555 960.478 98.3224C954.494 93.0898 946.659 90.4591 937.032 90.4591C927.406 90.4591 919.513 93.0898 913.442 98.3224C907.371 103.555 903.671 110.84 902.341 120.149Z" fill="#F0F0F0"/>
<path d="M1018.53 194.243V71.2334H1043.74V85.717H1047.73C1049.72 80.5711 1052.93 76.784 1057.32 74.3556C1061.72 71.9561 1067.18 70.7419 1073.66 70.7419H1088.37V93.9561H1072.65C1064.32 93.9561 1057.5 96.24 1052.18 100.808C1046.86 105.375 1044.2 112.4 1044.2 121.883V194.243H1018.5H1018.53Z" fill="#F0F0F0"/>
<path d="M128.726 264L125.546 262.497C121.325 260.502 117.191 258.623 113.173 256.773C40.6391 223.296 0.686401 204.852 0.686401 28.7937V22.4915L128.726 0L256.765 22.4915V28.7937C256.765 204.852 216.813 223.296 144.279 256.773C140.261 258.623 136.156 260.531 131.906 262.497L128.726 264ZM15.6903 35.0959C16.4998 195.629 49.1095 210.691 119.446 243.156C122.481 244.544 125.546 245.989 128.697 247.435C131.848 245.961 134.941 244.544 137.948 243.156C208.284 210.691 240.894 195.629 241.703 35.0959L128.668 15.2352L15.6325 35.0959H15.6903Z" fill="#F0F0F0"/>
<mask id="mask0_7251_5524" style="mask-type:luminance" maskUnits="userSpaceOnUse" x="8" y="7" width="242" height="249">
<path d="M128.726 7.60083L8.20291 28.7914C8.20291 209.619 48.7049 218.205 128.726 255.701C208.747 218.205 249.249 209.619 249.249 28.7914L128.726 7.60083Z" fill="white"/>
</mask>
<g mask="url(#mask0_7251_5524)">
<path fill-rule="evenodd" clip-rule="evenodd" d="M258.386 45.2392H-0.930847V7.59924H258.386V45.2392Z" fill="#F0F0F0"/>
<path fill-rule="evenodd" clip-rule="evenodd" d="M258.386 87.1627H-0.930847V57.0392H258.386V87.1627Z" fill="#F0F0F0"/>
<path fill-rule="evenodd" clip-rule="evenodd" d="M258.386 125.868H-0.930847V100.572H258.386V125.868Z" fill="#F0F0F0"/>
<path fill-rule="evenodd" clip-rule="evenodd" d="M258.386 165.906H-0.930847V146.219H258.386V165.906Z" fill="#F0F0F0"/>
<path fill-rule="evenodd" clip-rule="evenodd" d="M258.386 208.311H-0.930847V193.25H258.386V208.311Z" fill="#F0F0F0"/>
</g>
</svg>
