<svg width="1088" height="264" viewBox="0 0 1088 264" fill="none" xmlns="http://www.w3.org/2000/svg">
<path d="M354.891 197.742C339.251 197.742 326.271 194.244 315.979 187.276C305.659 180.28 299.328 169.729 297.015 155.592L320.981 149.868C322.31 156.69 324.565 162.096 327.716 166.086C330.868 170.075 334.828 172.909 339.569 174.556C344.31 176.233 349.427 177.043 354.92 177.043C363.073 177.043 369.346 175.453 373.769 172.301C378.163 169.15 380.389 165.074 380.389 160.073C380.389 155.071 378.308 151.429 374.145 149.087C369.982 146.746 363.824 144.838 355.672 143.363L347.201 141.86C338.876 140.357 331.301 138.188 324.508 135.384C317.685 132.551 312.279 128.648 308.289 123.647C304.3 118.646 302.305 112.257 302.305 104.451C302.305 92.8008 306.642 83.7811 315.285 77.3921C323.929 71.0031 335.406 67.7942 349.716 67.7942C364.027 67.7942 374.868 70.9164 383.772 77.1608C392.676 83.4052 398.458 91.8468 401.117 102.485L377.18 109.221C375.677 101.734 372.526 96.4723 367.698 93.379C362.87 90.3146 356.886 88.7535 349.745 88.7535C342.605 88.7535 337.257 90.0544 333.267 92.6273C329.278 95.2002 327.283 98.8139 327.283 103.468C327.283 108.47 329.249 112.112 333.151 114.454C337.054 116.796 342.345 118.53 348.994 119.686L357.724 121.19C366.542 122.693 374.607 124.774 381.921 127.434C389.236 130.094 395.017 133.91 399.267 138.911C403.517 143.912 405.627 150.562 405.627 158.859C405.627 171.174 401.059 180.743 391.895 187.537C382.731 194.359 370.444 197.771 354.978 197.771L354.891 197.742Z" fill="#051016"/>
<path d="M424.883 194.241V30.5853H450.583V88.722H454.573C456.221 85.5709 458.591 82.4776 461.684 79.4999C464.749 76.4933 468.825 74.0649 473.913 72.128C478.972 70.22 485.419 69.266 493.253 69.266C502.562 69.266 510.83 71.3475 518.087 75.5104C525.314 79.6733 531.009 85.5419 535.172 93.0873C539.335 100.662 541.416 109.768 541.416 120.407V194.241H515.716V122.401C515.716 111.763 513.056 103.899 507.737 98.8403C502.418 93.7811 495.104 91.2371 485.795 91.2371C475.156 91.2371 466.628 94.7351 460.21 101.702C453.792 108.698 450.612 118.846 450.612 132.144V194.27H424.912L424.883 194.241Z" fill="#051016"/>
<path d="M612.933 196.464C603.625 196.464 595.299 194.382 587.985 190.219C580.671 186.056 574.918 180.159 570.784 172.498C566.621 164.837 564.539 155.701 564.539 145.063V71.2284H590.24V143.328C590.24 153.967 592.899 161.83 598.219 166.918C603.538 172.006 610.939 174.521 620.421 174.521C630.886 174.521 639.328 170.994 645.746 163.912C652.134 156.858 655.343 146.653 655.343 133.355V71.2284H681.044V194.238H655.835V175.765H651.845C649.504 180.766 645.37 185.449 639.357 189.872C633.372 194.266 624.555 196.493 612.905 196.493L612.933 196.464Z" fill="#051016"/>
<path d="M745.022 194.241C737.534 194.241 731.579 191.986 727.185 187.505C722.791 183.024 720.565 177.04 720.565 169.552V92.9717H697.437V71.2607H720.565V30.5853H746.265V71.2607H775.203V92.9717H746.265V165.072C746.265 170.073 748.607 172.559 753.261 172.559H778.961V194.27H745.022V194.241ZM825.852 194.241C818.365 194.241 812.381 191.986 807.9 187.505C803.419 183.024 801.164 177.04 801.164 169.552V92.9717H775.203V71.2607H801.164V30.5853H826.864V71.2607H863.781V92.9717H826.864V165.072C826.864 170.073 829.264 172.559 834.091 172.559H859.532V194.27H825.852V194.241Z" fill="#051016"/>
<path d="M937.589 197.742C925.1 197.742 914.23 195.111 904.893 189.878C895.584 184.646 888.299 177.245 883.066 167.676C877.834 158.107 875.203 147.006 875.203 134.372V131.366C875.203 118.559 877.776 107.371 882.951 97.8021C888.096 88.2331 895.295 80.8323 904.517 75.5997C913.739 70.3671 924.435 67.7363 936.577 67.7363C948.719 67.7363 958.751 70.3671 967.655 75.5997C976.559 80.8323 983.497 88.1174 988.498 97.4262C993.5 106.735 995.986 117.634 995.986 130.123V139.865H901.424C901.742 150.677 905.384 159.292 912.265 165.681C919.174 172.099 927.76 175.279 938.081 175.279C947.736 175.279 954.993 173.111 959.907 168.803C964.822 164.467 968.609 159.495 971.268 153.828L992.488 164.814C990.146 169.468 986.793 174.383 982.399 179.529C977.975 184.675 972.194 189.011 965.053 192.509C957.883 196.007 948.748 197.742 937.618 197.742H937.589ZM901.655 120.149H969.765C969.1 110.84 965.776 103.555 959.791 98.3224C953.807 93.0898 945.973 90.4591 936.346 90.4591C926.719 90.4591 918.827 93.0898 912.756 98.3224C906.685 103.555 902.985 110.84 901.655 120.149Z" fill="#051016"/>
<path d="M1017.84 194.243V71.2334H1043.05V85.717H1047.04C1049.03 80.5711 1052.24 76.784 1056.64 74.3556C1061.03 71.9561 1066.5 70.7419 1072.97 70.7419H1087.69V93.9561H1071.96C1063.63 93.9561 1056.81 96.24 1051.49 100.808C1046.17 105.375 1043.51 112.4 1043.51 121.883V194.243H1017.81H1017.84Z" fill="#051016"/>
<path d="M128.039 264L124.859 262.497C120.639 260.502 116.505 258.623 112.486 256.773C39.9527 223.296 0 204.852 0 28.7937V22.4915L128.039 0L256.079 22.4915V28.7937C256.079 204.852 216.126 223.296 143.593 256.773C139.574 258.623 135.469 260.531 131.219 262.497L128.039 264ZM15.0039 35.0959C15.8134 195.629 48.4231 210.691 118.76 243.156C121.795 244.544 124.859 245.989 128.011 247.435C131.162 245.961 134.255 244.544 137.261 243.156C207.598 210.691 240.208 195.629 241.017 35.0959L127.982 15.2352L14.9461 35.0959H15.0039Z" fill="#051016"/>
<mask id="mask0_7251_5106" style="mask-type:luminance" maskUnits="userSpaceOnUse" x="7" y="7" width="242" height="249">
<path d="M128.039 7.60083L7.51648 28.7914C7.51648 209.619 48.0185 218.205 128.039 255.701C208.06 218.205 248.562 209.619 248.562 28.7914L128.039 7.60083Z" fill="white"/>
</mask>
<g mask="url(#mask0_7251_5106)">
<path fill-rule="evenodd" clip-rule="evenodd" d="M257.699 45.2392H-1.61725V7.59924H257.699V45.2392Z" fill="#051016"/>
<path fill-rule="evenodd" clip-rule="evenodd" d="M257.699 87.1627H-1.61725V57.0392H257.699V87.1627Z" fill="#051016"/>
<path fill-rule="evenodd" clip-rule="evenodd" d="M257.699 125.868H-1.61725V100.572H257.699V125.868Z" fill="#051016"/>
<path fill-rule="evenodd" clip-rule="evenodd" d="M257.699 165.906H-1.61725V146.219H257.699V165.906Z" fill="#051016"/>
<path fill-rule="evenodd" clip-rule="evenodd" d="M257.699 208.311H-1.61725V193.25H257.699V208.311Z" fill="#051016"/>
</g>
</svg>
