<svg width="279" height="279" viewBox="0 0 279 279" fill="none" xmlns="http://www.w3.org/2000/svg">
<rect width="279" height="279" fill="white"/>
<path d="M267.314 115.151H211.634L190.15 142.369H237.631C231.515 167.149 209.108 185.584 182.466 185.584C175.865 185.584 169.527 184.44 163.628 182.361C175.401 167.654 182.466 149.022 182.466 128.761C182.466 112.53 177.924 97.35 170.066 84.3899C162.393 86.5204 155.26 90.5773 149.574 96.1988C148.198 97.5434 146.939 98.981 145.775 100.483C150.586 108.817 153.354 118.467 153.354 128.761C153.354 129.801 153.316 130.832 153.261 131.86C152.224 153.34 138.367 173.27 118.373 181.251C115.449 182.456 112.424 183.4 109.342 184.107C108.931 184.202 108.521 184.297 108.105 184.383C107.772 184.451 107.441 184.515 107.108 184.578C106.503 184.692 105.896 184.798 105.284 184.893C105.06 184.927 104.836 184.963 104.611 184.995C103.891 185.099 103.166 185.186 102.437 185.263C102.283 185.279 102.131 185.299 101.977 185.313C101.177 185.39 100.375 185.451 99.5655 185.494C99.467 185.5 99.3686 185.509 99.2683 185.514C98.3678 185.557 97.4637 185.584 96.5524 185.584C96.5452 185.584 96.5363 185.584 96.5291 185.584C65.1969 185.584 39.7064 160.093 39.7064 128.761C39.7064 97.4288 65.1986 71.9383 96.5291 71.9383C103.13 71.9383 109.468 73.0823 115.367 75.1609C103.594 89.8683 96.5291 108.5 96.5291 128.761C96.5291 144.992 101.071 160.172 108.929 173.132C116.602 171.002 123.735 166.945 129.421 161.323C130.798 159.979 132.056 158.541 133.22 157.039C128.409 148.705 125.641 139.055 125.641 128.761C125.641 127.721 125.679 126.69 125.735 125.662C126.771 104.182 140.628 84.2521 160.622 76.2709C163.542 75.066 166.566 74.1243 169.646 73.4171C170.061 73.3204 170.476 73.2255 170.895 73.1378C171.225 73.0698 171.552 73.0071 171.883 72.9445C172.492 72.8281 173.103 72.7225 173.719 72.6276C173.939 72.5936 174.161 72.5595 174.381 72.5273C175.106 72.4235 175.835 72.334 176.567 72.257C176.715 72.2409 176.866 72.223 177.014 72.2086C177.818 72.1317 178.628 72.0708 179.44 72.0278C179.535 72.0224 179.628 72.0135 179.723 72.0099C180.633 71.9652 181.546 71.9383 182.466 71.9383C205.087 71.9383 224.648 85.2314 233.784 104.411H264.865C254.342 68.8482 221.396 42.8242 182.468 42.8242C166.82 42.8242 152.151 47.0476 139.5 54.3861C126.85 47.0494 112.18 42.8242 96.5327 42.8242C49.1467 42.8242 10.5977 81.375 10.5977 128.759V214.694L37.8391 236.178V191.444C53.2125 205.848 73.853 214.694 96.5327 214.694C112.18 214.694 126.85 210.471 139.5 203.132C152.151 210.469 166.82 214.694 182.468 214.694C205.147 214.694 225.788 205.848 241.161 191.444V236.178L268.403 211.973V115.151H267.314Z" fill="#333333"/>
</svg>
